<svg xmlns="http://www.w3.org/2000/svg" xmlns:xlink="http://www.w3.org/1999/xlink" width="92" height="48"><defs><path id="A" d="M.033.268h91.485v47.485H.033z"/></defs><g fill-rule="evenodd"><mask id="B" fill="#fff"><use xlink:href="#A"/></mask><path d="M52.534 10.694c7.127 0 13.25 4.244 15.948 10.31-1.326-8.102-7.954-14.26-15.948-14.26-8.004 0-14.635 6.16-15.958 14.26 2.692-6.066 8.82-10.31 15.958-10.31zm16.95 3.033l.8 1.3 3.103-1.872-.787-1.304-3.106 1.876zM61.83 6.442l1.315.762 1.273-2.197-1.315-.762-1.273 2.197zm-30.154 6.713l3.108 1.875.785-1.303-3.104-1.876-.79 1.304zm8.964-8.147l1.268 2.197 1.32-.762-1.268-2.197-1.32.762zm11.34-1.036h1.52V.268h-1.52v3.704z" fill="#f9cf23" mask="url(#B)"/><path d="M84.73 31.53c-1.44-.58-2.454-1.255-2.454-2.61 0-1.162.827-2.174 2.357-2.174 1.17 0 2.152.52 2.644.92l.916-2.176c-1.073-.708-2.453-1.164-4.3-1.164-3.156 0-5.242 2.148-5.242 4.782 0 1.716.643 3.435 3.77 4.63 1.682.64 2.417 1.315 2.417 2.727 0 1.35-1.008 2.33-2.544 2.33-1.345 0-2.484-.46-3.096-.95l-.982 2.394c.982.675 2.634 1.198 4.57 1.198 3.62 0 5.89-2.33 5.89-5.03 0-1.928-.74-3.585-3.955-4.874zm-6.51 11.814c-.053 0-.09 0-.122-.007v-.43h.122c.152 0 .29.065.29.218 0 .164-.14.22-.29.22zm-.122-.9c.024-.002.06-.01.127-.01.147 0 .247.056.247.182 0 .11-.092.192-.245.192h-.13v-.365zm.328.408v-.002c.12-.04.195-.137.195-.25a.24.24 0 0 0-.094-.194c-.07-.056-.164-.087-.308-.087a1.03 1.03 0 0 0-.269.032v1.102c.05.01.124.017.228.017.183 0 .3-.04.387-.108.057-.055.098-.127.098-.226 0-.163-.128-.257-.238-.284zM67.77 39.134c-.67 0-1.225-.093-1.655-.276V26.904c.526-.22 1.107-.338 1.933-.338 3.037 0 4.11 2.294 4.11 6.253 0 4.013-1.44 6.316-4.387 6.316zm.37-14.81c-2.635 0-4.477.52-5.734 1.2v22.237s3.71-.13 3.71-2.415v-4.3c.552.2 1.534.34 2.488.34 4.323 0 7.264-3.285 7.264-8.684 0-5.272-2.912-8.368-7.726-8.368zm22.04.09h-.263v-.486h.33c.162 0 .34.026.34.237 0 .24-.197.25-.408.25zm.62-.24c0-.303-.172-.436-.535-.436h-.557v1.52h.2v-.652h.273l.416.652h.23l-.438-.67c.227-.026.4-.14.4-.412zm-7.976 18.803l.1-.327c.024-.07.04-.137.06-.203h.005c.017.067.03.13.055.206l.115.324h-.345zm.087-.66l-.38 1.126h.148l.115-.353h.4l.122.353h.156l-.384-1.126h-.178zm-2.33.53h-.15v-.41a.55.55 0 0 1 .144-.015c.155 0 .262.065.262.2 0 .13-.098.214-.254.214zm.187.063v-.004c.118-.042.212-.14.212-.29 0-.09-.033-.165-.086-.214-.07-.064-.173-.096-.326-.096-.102 0-.21.013-.282.032v1.104h.145v-.48h.14c.13.002.192.06.226.215.03.142.057.238.072.266h.15a1.78 1.78 0 0 1-.084-.309c-.03-.114-.082-.197-.166-.223zm7.11.428c-.054 0-.1 0-.146-.006v-.892a.83.83 0 0 1 .168-.015c.308 0 .46.163.46.434 0 .304-.17.483-.48.478zm.017-1.03a2.03 2.03 0 0 0-.312.027v1.107c.077.015.16.017.264.017.22 0 .4-.058.503-.163s.16-.252.16-.44c0-.18-.055-.312-.158-.406-.097-.09-.25-.142-.456-.142zM36.1 25.515v15.643h3.74v-13.95c.86-.493 2.242-.557 3.498-.125l.735-2.73c-4.168-.12-6.254.336-7.973 1.162zm54.095.094a1.1 1.1 0 0 1-1.111-1.114c0-.646.494-1.13 1.11-1.13a1.1 1.1 0 0 1 1.111 1.115c0 .642-.493 1.13-1.11 1.13zm0-2.432a1.31 1.31 0 0 0-1.321 1.318c0 .74.602 1.303 1.32 1.303a1.31 1.31 0 0 0 1.322-1.318c0-.74-.603-1.303-1.322-1.303zm-61.82 15.528c-.427.273-1.04.364-1.936.364-2.876 0-4.07-2.454-4.07-6.192 0-3.498 1.097-6.287 4.35-6.287.586 0 1.13.06 1.657.213v11.9zm0-13.924c-.735-.214-1.566-.308-2.485-.308-4.296 0-7.238 3.222-7.238 8.62 0 5.24 2.825 8.37 7.7 8.37 2.574 0 4.442-.46 5.762-1.195V17.086h-3.74v7.695zm23.797 14.136c-2.58 0-3.16-2.91-3.16-6.04 0-3.157.52-6.193 3.16-6.193 2.662 0 3.154 3.036 3.154 6.193 0 3.128-.492 6.04-3.154 6.04zm0-14.593c-4.633 0-6.873 3.65-6.873 8.584 0 4.874 2.24 8.554 6.873 8.554s6.86-3.68 6.86-8.554c0-4.935-2.203-8.584-6.86-8.584zM85.77 42.793a7.44 7.44 0 0 0 .011.46l-.004.003c-.05-.118-.113-.235-.197-.364l-.363-.574h-.16v1.126h.14v-.478c0-.2-.002-.324-.012-.468h.006a3.23 3.23 0 0 0 .21.378l.355.568h.152v-1.126h-.137v.475zM5.92 38.767c-.827 0-1.594-.155-2.054-.31V22.604c.555-.212 1.164-.305 1.992-.305 3.53 0 5.1 2.6 5.1 8.097 0 5.734-1.407 8.37-5.028 8.37zm-.153-19.012c-2.423 0-4.382.494-5.767 1.194v19.32c1.292.734 3.374 1.195 5.982 1.195 6.38 0 8.922-4.72 8.922-11.007 0-6.318-2.762-10.702-9.137-10.702z" fill="#2075af" mask="url(#B)"/></g></svg>